<?xml version="1.0" standalone="no"?>
<!DOCTYPE svg PUBLIC "-//W3C//DTD SVG 20010904//EN"
 "http://www.w3.org/TR/2001/REC-SVG-20010904/DTD/svg10.dtd">
<svg version="1.0" xmlns="http://www.w3.org/2000/svg"
 width="16.000000pt" height="16.000000pt" viewBox="0 0 16.000000 16.000000"
 preserveAspectRatio="xMidYMid meet">

<g transform="translate(0.000000,16.000000) scale(0.100000,-0.100000)"
fill="#000000" stroke="none">
<path d="M114 148 c-4 -7 -7 -26 -6 -44 3 -34 -19 -60 -43 -50 -9 3 -15 0 -15
-8 0 -22 31 -28 56 -11 20 13 24 24 24 70 0 56 -3 64 -16 43z"/>
<path d="M36 114 c-17 -17 -23 -104 -7 -104 6 0 11 19 13 43 2 32 8 44 26 52
12 5 22 13 22 17 0 14 -38 8 -54 -8z"/>
</g>
</svg>
